HIERARCHY
ROOT Hips
{
  OFFSET 6.99165 101.082 -196.201
  CHANNELS 6 Xposition Yposition Zposition Zrotation Xrotation Yrotation
  JOINT RightUpLeg
  {
    OFFSET -8.9458 -8.66707 0.101652
    CHANNELS 3 Zrotation Xrotation Yrotation
    JOINT RightLeg
    {
      OFFSET 0 -44.4227 1.3727
      CHANNELS 3 Zrotation Xrotation Yrotation
      JOINT RightFoot
      {
        OFFSET 0.253549 -42.0924 -1.46059
        CHANNELS 3 Zrotation Xrotation Yrotation
        JOINT RightToes
        {
          OFFSET 0.04 -4.41509 8.4991
          CHANNELS 3 Zrotation Xrotation Yrotation
          End Site
          {
            OFFSET -0.08 -0.137448 9.77979
          }
        }
      }
    }
  }
  JOINT Spine
  {
    OFFSET 0 11.8905 0
    CHANNELS 3 Zrotation Xrotation Yrotation
    JOINT Spine1
    {
      OFFSET 0 25.6574 0.127663
      CHANNELS 3 Zrotation Xrotation Yrotation
      JOINT HEad
      {
        OFFSET 0 8.73416 0.011341
        CHANNELS 3 Zrotation Xrotation Yrotation
        End Site
        {
          OFFSET -0.29 12.7742 2.51395
        }
      }
      JOINT LeftShoulder1
      {
        OFFSET 8.99 -0.362252 -0.22
        CHANNELS 3 Zrotation Xrotation Yrotation
        JOINT LeftArm
        {
          OFFSET 10.2827 -0.00338 0.322123
          CHANNELS 3 Zrotation Xrotation Yrotation
          JOINT LeftForeArm
          {
            OFFSET 32.7669 0.099144 -1.42434
            CHANNELS 3 Zrotation Xrotation Yrotation
            JOINT LeftHand
            {
              OFFSET 27.5643 0.085362 1.02216
              CHANNELS 3 Zrotation Xrotation Yrotation
              End Site
              {
                OFFSET 16.7443 -0.6 1.50291
              }
            }
          }
        }
      }
      JOINT RightShoulder
      {
        OFFSET -8.99 -0.362252 -0.22
        CHANNELS 3 Zrotation Xrotation Yrotation
        JOINT RightArm
        {
          OFFSET -10.2827 -0.00338 0.322123
          CHANNELS 3 Zrotation Xrotation Yrotation
          JOINT RightForeArm
          {
            OFFSET -32.8971 0.099144 -1.42434
            CHANNELS 3 Zrotation Xrotation Yrotation
            JOINT RightHand
            {
              OFFSET -27.4921 0.085362 1.02216
              CHANNELS 3 Zrotation Xrotation Yrotation
              End Site
              {
                OFFSET -16.6312 -0.6 1.50291
              }
            }
          }
        }
      }
    }
  }
  JOINT LeftUpLeg
  {
    OFFSET 8.9458 -8.66707 0.101652
    CHANNELS 3 Zrotation Xrotation Yrotation
    JOINT LeftLeg
    {
      OFFSET 0 -44.4227 1.3727
      CHANNELS 3 Zrotation Xrotation Yrotation
      JOINT LeftFoot
      {
        OFFSET -0.253549 -42.0924 -1.46059
        CHANNELS 3 Zrotation Xrotation Yrotation
        JOINT LeftToes
        {
          OFFSET -0.04 -4.41509 8.4991
          CHANNELS 3 Zrotation Xrotation Yrotation
          End Site
          {
            OFFSET 0.08 -0.047448 9.77979
          }
        }
      }
    }
  }
}
MOTION
Frames:	16
Frame Time:	0.0166667
-1.34742 100.676 -30.6642 4.46033 -3.99824 -3.80149 -0.705657 -17.2581 -7.14512 0.735942 2.14129 1.4815 -3.86283 1.9145 0.0019857 -0.952406 11.1588 2.54441 -3.70905 3.45032 -2.35463 -12.2822 -1.35987 -0.35123 5.5882 20.2039 12.3515 1.65861e-015 0 -0 -77.4535 -28.1436 -17.2885 -29.5184 15.7024 -17.6965 0.368473 9.90896 -0.00117926 -1.19583 1.62396 18.1924 89.3717 -28.1645 -5.6257 23.8478 14.3326 10.977 -0.369625 9.91382 0.00119886 -4.58469 10.5078 4.8886 -8.7949 25.6338 -0.806015 -0.390273 -13.1023 -0.0508499 -1.18375 -11.637 -2.60366 
-1.48331 100.45 -28.5426 4.41677 -4.0571 -3.50147 -0.456966 -16.9762 -7.22886 0.298 3.37032 1.98679 -3.97145 4.21753 0.0922301 -1.80652 8.84965 2.70074 -3.55206 3.54268 -2.27255 -12.0052 -1.81553 -0.403 5.49621 20.5119 12.093 1.19271e-015 -2.98177e-016 -1.59028e-015 -77.6251 -28.8011 -16.199 -29.4296 15.4546 -16.7658 0.368473 9.90896 -0.00117926 -0.799339 1.67125 17.8234 88.6701 -28.3126 -5.89493 23.9527 14.2681 10.6846 -0.369625 9.91382 0.00119886 -4.33882 11.4613 4.84914 -8.70979 26.3509 -1.30664 -0.566821 -12.6146 -0.0671436 -0.919294 -11.0795 -3.08372 
-1.6232 100.372 -26.4209 4.10026 -4.15318 -3.14809 -0.15825 -17.1073 -6.69397 0.0619741 5.51822 1.93834 -3.78619 7.53025 0.195839 -3.92175 10.1015 3.99851 -3.21644 3.66627 -2.13705 -11.3491 -2.14174 -0.426422 5.3855 20.8737 11.6179 1.98785e-016 -3.97569e-016 -0 -77.8268 -29.3919 -15.0255 -29.5059 15.1405 -15.5738 0.368473 9.90896 -0.00117926 -0.50018 1.69233 17.3971 87.8335 -28.5925 -6.34428 24.066 14.2466 10.5661 -0.369625 9.91382 0.00119886 -3.87303 12.4433 4.82513 -8.2749 26.9571 -1.97146 -1.02721 -11.584 -0.0980006 -0.567837 -10.4949 -3.76067 
-1.76977 100.356 -24.2868 3.65532 -4.3709 -2.86214 0.214204 -17.2491 -5.82838 -0.0421624 8.18963 1.63733 -3.6023 10.2621 0.280956 -5.88549 11.8732 5.25478 -2.85153 3.79619 -1.97816 -10.5475 -2.26299 -0.423102 5.23467 21.2095 11.2084 1.2424e-016 -1.98785e-016 7.95139e-016 -78.1216 -30.1719 -13.8278 -29.5127 14.7915 -14.2307 0.368473 9.90896 -0.00117926 -0.284122 1.69703 16.9759 87.1066 -28.8843 -6.61897 24.1143 14.2158 10.3945 -0.369625 9.91382 0.00119886 -3.31739 13.3565 4.83488 -7.70197 27.8127 -2.56627 -1.58893 -10.2466 -0.124045 -0.00115451 -9.11791 -4.62706 
-1.92594 100.337 -22.1382 3.16831 -4.85693 -2.79988 0.655729 -17.1111 -4.52323 0.0648747 11.2395 0.930626 -3.62619 10.4459 0.293506 -5.94733 11.7676 5.2617 -2.58912 3.90351 -1.81768 -9.76557 -1.98004 -0.377585 4.98113 21.4282 11.1813 -1.44119e-015 3.97569e-016 7.95139e-016 -78.6246 -31.473 -12.7378 -29.2233 14.4297 -12.786 0.368473 9.90896 -0.00117926 -0.152696 1.69458 16.6727 86.7534 -29.0863 -6.31365 24.0084 14.1281 9.9657 -0.369625 9.91382 0.00119886 -2.80181 14.2136 4.91412 -7.1184 29.2082 -2.85603 -2.08469 -8.89149 -0.133002 1.0244 -6.11203 -5.69832 
-2.09347 100.336 -19.9991 2.66597 -5.42287 -2.81517 1.16308 -16.7696 -3.48606 0.199227 14.2825 0.509191 -3.8372 9.47263 0.278747 -5.1682 11.1292 4.76005 -2.36882 3.99954 -1.66277 -9.01012 -1.54641 -0.319274 4.73075 21.5422 11.2428 -1.36664e-015 7.95139e-016 -0 -79.1239 -32.9653 -11.616 -28.7832 14.0682 -11.3125 0.368473 9.90896 -0.00117926 -0.187948 1.66287 16.3714 86.7785 -29.219 -5.64501 23.7799 14.0021 9.35907 -0.369625 9.91382 0.00119886 -2.21816 14.711 5.01328 -6.59635 31.1973 -2.97575 -2.63663 -7.0792 -0.114344 2.42026 -1.99503 -7.0013 
-2.28087 100.338 -17.8687 2.2187 -5.96088 -2.82725 1.82123 -16.2063 -3.62139 -0.131153 16.9621 1.41503 -4.39634 7.96133 0.271002 -3.91859 10.5253 4.02251 -2.22903 4.0686 -1.51298 -8.33026 -1.12749 -0.271586 4.5847 21.509 11.1732 1.46604e-015 3.97569e-016 -0 -79.4663 -34.3943 -10.3322 -28.2478 13.7377 -9.91569 0.368473 9.90896 -0.00117926 -0.552876 1.56434 15.9396 87.3819 -29.2599 -4.61504 23.3912 13.8141 8.45998 -0.369625 9.91382 0.00119886 -1.46051 14.575 5.0048 -6.38769 33.9654 -2.87844 -3.35314 -4.33975 -0.0568977 4.39687 3.54895 -8.91569 
-2.47088 100.379 -15.8196 1.78843 -6.37591 -2.79481 2.44873 -15.4638 -4.2055 -0.553625 19.039 2.58019 -4.98757 6.26156 0.253934 -2.66915 9.86718 3.27844 -2.00477 4.16267 -1.41301 -7.76068 -0.78844 -0.236842 4.50975 21.402 11.0622 7.45443e-016 7.95139e-016 -0 -79.6378 -35.8383 -8.98973 -27.6838 13.4225 -8.54181 0.368473 9.90896 -0.00117926 -1.00889 1.45346 15.5401 88.2157 -29.2224 -3.47474 22.9574 13.6418 7.64687 -0.369625 9.91382 0.00119886 -0.634406 13.7305 5.15317 -6.10688 37.4048 -2.87001 -4.12552 -1.05344 0.0481403 6.41702 8.80605 -10.5358 
-2.65858 100.513 -13.9441 1.36151 -6.50432 -2.59792 2.83849 -14.509 -4.90772 -0.591924 19.9642 3.13841 -5.29973 5.06988 0.221289 -2.1293 9.20179 2.91043 -1.50597 4.35533 -1.42236 -7.40731 -0.706078 -0.230682 4.55379 21.3088 10.9065 1.63997e-015 0 -0 -79.5429 -37.272 -7.67448 -27.152 13.1052 -7.1071 0.368473 9.90896 -0.00117926 -1.27239 1.38731 15.2378 88.9476 -29.1333 -2.51606 22.6012 13.5661 7.27009 -0.369625 9.91382 0.00119886 0.281189 11.9155 5.74083 -5.30133 41.5597 -3.41212 -4.98704 2.88788 0.247056 7.28556 11.7661 -10.8917 
-2.81546 100.672 -12.1829 0.938689 -6.4441 -2.39069 3.11547 -13.536 -5.46571 -0.335951 20.3647 3.32359 -5.47992 3.9643 0.176003 -1.87468 8.70524 2.71583 -0.845559 4.56608 -1.49632 -7.10389 -0.710933 -0.236511 4.57436 21.1448 10.7648 4.96962e-017 3.97569e-016 7.95139e-016 -79.3062 -38.7598 -6.32673 -26.7202 12.8188 -5.80884 0.368473 9.90896 -0.00117926 -1.63322 1.32324 15.1938 89.731 -28.9612 -1.61933 22.296 13.5753 7.29154 -0.369625 9.91382 0.00119886 1.13367 9.42439 6.57836 -3.97665 46.1409 -4.2738 -5.64253 6.48846 0.444603 7.32212 13.9654 -10.0203 
-2.89009 100.772 -10.5349 0.443631 -6.20423 -2.28474 3.31573 -12.8407 -5.39149 0.343402 20.81 2.96266 -5.55152 2.63587 0.11205 -1.72179 8.69335 2.63642 0.0584146 4.75085 -1.64142 -6.64845 -0.672691 -0.242867 4.40136 20.8494 10.6834 1.31695e-015 -3.97569e-016 1.59028e-015 -79.0254 -40.4087 -4.90426 -26.5073 12.6019 -4.84036 0.368473 9.90896 -0.00117926 -2.36267 1.23157 15.6425 90.6478 -28.6932 -0.773638 22.0384 13.688 7.83778 -0.369625 9.91382 0.00119886 1.76277 6.32987 7.87787 -1.73666 51.0758 -5.82277 -5.66522 8.69092 0.548456 6.38979 16.8593 -6.98804 
-2.94643 100.917 -8.918 0.0927657 -5.88865 -2.28829 3.36745 -12.0849 -5.05941 1.09846 20.9089 2.4662 -5.5758 1.44199 0.0503145 -1.66852 8.78982 2.62309 0.810235 4.87396 -1.76335 -6.25535 -0.650689 -0.250028 4.16716 20.4392 10.6957 -1.86361e-016 0 -0 -78.6341 -42.0624 -3.40886 -26.4469 12.4359 -4.12422 0.368473 9.90896 -0.00117926 -3.22941 1.13083 16.4295 91.5741 -28.2977 0.052778 21.8584 13.8804 8.77035 -0.369625 9.91382 0.00119886 2.21453 3.04598 8.74858 0.546573 55.7631 -6.70892 -5.35121 9.78905 0.583074 4.93091 18.5082 -3.82163 
-3.04207 101.228 -7.21961 0.168978 -5.61262 -2.48116 3.17753 -10.9412 -4.5327 1.59809 20.3206 2.12487 -5.61546 0.74101 0.0150511 -1.66682 8.65459 2.60425 0.887139 4.85468 -1.7307 -6.10828 -0.694803 -0.255526 3.96113 19.8752 10.8656 1.61513e-016 0 -1.59028e-015 -78.1169 -43.6084 -1.82962 -26.5197 12.3122 -3.65593 0.368473 9.90896 -0.00117926 -4.07456 1.03682 17.5535 92.3783 -27.7372 0.867241 21.7995 14.144 10.0526 -0.369625 9.91382 0.00119886 2.06979 0.0563887 7.93078 0.569407 59.4773 -3.97467 -4.88361 9.58348 0.530159 4.22709 16.7441 -3.08965 
-3.14476 101.579 -5.52967 0.40594 -5.3512 -2.75891 2.88537 -9.67363 -4.25123 1.85395 19.4687 2.15054 -5.67876 0.221154 -0.0103967 -1.68462 8.4936 2.59184 0.747976 4.78448 -1.66085 -6.09727 -0.703106 -0.256135 3.75484 19.2655 11.1448 1.61513e-015 1.98785e-016 3.18055e-015 -77.4866 -45.0175 -0.199557 -26.6915 12.2323 -3.41294 0.368473 9.90896 -0.00117926 -4.95399 0.927411 18.7902 93.151 -27.0129 1.74809 21.8052 14.4429 11.5089 -0.369625 9.91382 0.00119886 1.64899 -2.8913 6.75824 -0.781426 62.5292 0.426089 -4.21873 8.49595 0.429098 3.59082 13.8549 -2.79476 
-3.24429 101.885 -3.90935 0.620454 -5.12758 -3.04655 2.67567 -8.43507 -4.94941 1.69024 18.6615 3.09902 -5.83973 -0.338435 -0.0348598 -1.73886 8.5082 2.61974 0.686969 4.73226 -1.63084 -6.17766 -0.546933 -0.244288 3.55851 18.682 11.5051 -1.42876e-015 -1.98785e-016 7.95139e-016 -76.7978 -46.2398 1.39055 -26.9113 12.1901 -3.35909 0.368473 9.90896 -0.00117926 -5.91061 0.775143 19.9105 93.9764 -26.0774 2.81389 21.8435 14.7454 12.9466 -0.369625 9.91382 0.00119886 1.46381 -5.86855 6.24959 -1.96118 65.1911 4.27161 -3.32191 6.76604 0.304779 2.52592 11.5645 -1.44478 
-3.33211 102.142 -2.33245 0.837971 -4.91256 -3.33635 2.51089 -7.24788 -5.76965 1.45947 17.8958 4.18727 -5.9689 -0.852155 -0.0572678 -1.63415 8.37216 2.55035 0.675837 4.68493 -1.63031 -6.33731 -0.356363 -0.230538 3.33729 18.1924 11.9512 2.23633e-016 -1.11816e-016 7.95139e-016 -75.9827 -47.2351 3.06924 -27.202 12.1956 -3.5324 0.368473 9.90896 -0.00117926 -6.82512 0.613452 20.9281 94.7134 -25.0301 3.94031 21.9116 15.0483 14.3729 -0.369625 9.91382 0.00119886 1.38062 -8.81542 6.06178 -3.34656 67.2605 8.01699 -2.36417 4.74081 0.185484 1.47182 9.31092 0.0244098 
